<mxfile host="app.diagrams.net" modified="2020-09-11T11:05:26.015Z" agent="5.0 (Windows)" etag="4jGjpRzDYPW3v3kSC_6I" version="13.6.9" type="github">
  <diagram id="qud7s8SgOKXTePOVKODS" name="Page-1">
    <mxGraphModel dx="910" dy="487" grid="1" gridSize="10" guides="1" tooltips="1" connect="1" arrows="1" fold="1" page="1" pageScale="1" pageWidth="1169" pageHeight="827" math="0" shadow="0">
      <root>
        <mxCell id="0" />
        <mxCell id="1" parent="0" />
        <mxCell id="Nu7F3VsqpsNEjitxQK_s-1" value="Pensions - Assessment" style="swimlane;fontSize=13;" parent="1" vertex="1">
          <mxGeometry x="40" y="20" width="1110" height="720" as="geometry" />
        </mxCell>
        <mxCell id="Nu7F3VsqpsNEjitxQK_s-2" value="Start" style="rounded=1;whiteSpace=wrap;html=1;fontSize=10;" parent="Nu7F3VsqpsNEjitxQK_s-1" vertex="1">
          <mxGeometry x="269" y="60" width="120" height="60" as="geometry" />
        </mxCell>
        <mxCell id="Nu7F3VsqpsNEjitxQK_s-3" value="Team leader in Assessment receives the claims and distributes to assessors" style="rounded=0;whiteSpace=wrap;html=1;fontSize=10;" parent="Nu7F3VsqpsNEjitxQK_s-1" vertex="1">
          <mxGeometry x="269" y="200" width="120" height="60" as="geometry" />
        </mxCell>
        <mxCell id="Nu7F3VsqpsNEjitxQK_s-5" value="" style="edgeStyle=orthogonalEdgeStyle;rounded=0;orthogonalLoop=1;jettySize=auto;html=1;entryX=0.5;entryY=0;entryDx=0;entryDy=0;" parent="Nu7F3VsqpsNEjitxQK_s-1" source="Nu7F3VsqpsNEjitxQK_s-2" target="Nu7F3VsqpsNEjitxQK_s-3" edge="1">
          <mxGeometry relative="1" as="geometry">
            <mxPoint x="329" y="200" as="targetPoint" />
          </mxGeometry>
        </mxCell>
        <mxCell id="Nu7F3VsqpsNEjitxQK_s-10" value="The pension number is generated" style="whiteSpace=wrap;html=1;rounded=0;fontSize=10;" parent="Nu7F3VsqpsNEjitxQK_s-1" vertex="1">
          <mxGeometry x="605" y="480" width="120" height="60" as="geometry" />
        </mxCell>
        <mxCell id="Nu7F3VsqpsNEjitxQK_s-12" value="Assessor appends a digital signature, stamp" style="whiteSpace=wrap;html=1;rounded=0;fontSize=10;" parent="Nu7F3VsqpsNEjitxQK_s-1" vertex="1">
          <mxGeometry x="605" y="340" width="120" height="60" as="geometry" />
        </mxCell>
        <mxCell id="Nu7F3VsqpsNEjitxQK_s-13" value="" style="edgeStyle=orthogonalEdgeStyle;rounded=0;orthogonalLoop=1;jettySize=auto;html=1;fontSize=10;" parent="Nu7F3VsqpsNEjitxQK_s-1" source="Nu7F3VsqpsNEjitxQK_s-10" target="Nu7F3VsqpsNEjitxQK_s-12" edge="1">
          <mxGeometry relative="1" as="geometry" />
        </mxCell>
        <mxCell id="Nu7F3VsqpsNEjitxQK_s-14" value="Claim sent to Directorate for approval and an alert is sent to the approver" style="whiteSpace=wrap;html=1;rounded=0;fontSize=10;" parent="Nu7F3VsqpsNEjitxQK_s-1" vertex="1">
          <mxGeometry x="605" y="200" width="120" height="60" as="geometry" />
        </mxCell>
        <mxCell id="Nu7F3VsqpsNEjitxQK_s-15" value="" style="edgeStyle=orthogonalEdgeStyle;rounded=0;orthogonalLoop=1;jettySize=auto;html=1;fontSize=10;" parent="Nu7F3VsqpsNEjitxQK_s-1" source="Nu7F3VsqpsNEjitxQK_s-12" target="Nu7F3VsqpsNEjitxQK_s-14" edge="1">
          <mxGeometry relative="1" as="geometry" />
        </mxCell>
        <mxCell id="Nu7F3VsqpsNEjitxQK_s-16" value="Retiree is notified of the progress" style="shape=process;whiteSpace=wrap;html=1;backgroundOutline=1;rounded=0;fontSize=10;" parent="Nu7F3VsqpsNEjitxQK_s-1" vertex="1">
          <mxGeometry x="425" y="200" width="120" height="60" as="geometry" />
        </mxCell>
        <mxCell id="Nu7F3VsqpsNEjitxQK_s-17" value="" style="edgeStyle=orthogonalEdgeStyle;rounded=0;orthogonalLoop=1;jettySize=auto;html=1;fontSize=10;exitX=1;exitY=0.5;exitDx=0;exitDy=0;entryX=0;entryY=0.5;entryDx=0;entryDy=0;" parent="Nu7F3VsqpsNEjitxQK_s-1" source="Nu7F3VsqpsNEjitxQK_s-16" target="Nu7F3VsqpsNEjitxQK_s-14" edge="1">
          <mxGeometry relative="1" as="geometry">
            <mxPoint x="759" y="440" as="sourcePoint" />
            <mxPoint x="565" y="230" as="targetPoint" />
          </mxGeometry>
        </mxCell>
        <mxCell id="Nu7F3VsqpsNEjitxQK_s-18" value="End" style="rounded=1;whiteSpace=wrap;html=1;fontSize=10;" parent="Nu7F3VsqpsNEjitxQK_s-1" vertex="1">
          <mxGeometry x="874" y="200" width="120" height="60" as="geometry" />
        </mxCell>
        <mxCell id="Nu7F3VsqpsNEjitxQK_s-20" value="" style="edgeStyle=orthogonalEdgeStyle;rounded=0;orthogonalLoop=1;jettySize=auto;html=1;fontSize=10;entryX=0;entryY=0.5;entryDx=0;entryDy=0;" parent="Nu7F3VsqpsNEjitxQK_s-1" source="Nu7F3VsqpsNEjitxQK_s-14" target="Nu7F3VsqpsNEjitxQK_s-18" edge="1">
          <mxGeometry relative="1" as="geometry">
            <mxPoint x="665" y="264" as="targetPoint" />
          </mxGeometry>
        </mxCell>
        <mxCell id="Nu7F3VsqpsNEjitxQK_s-9" value="" style="edgeStyle=orthogonalEdgeStyle;rounded=0;orthogonalLoop=1;jettySize=auto;html=1;fontSize=10;exitX=0.5;exitY=1;exitDx=0;exitDy=0;" parent="1" source="Nu7F3VsqpsNEjitxQK_s-3" target="Nu7F3VsqpsNEjitxQK_s-8" edge="1">
          <mxGeometry relative="1" as="geometry">
            <mxPoint x="369" y="420" as="sourcePoint" />
          </mxGeometry>
        </mxCell>
        <mxCell id="Nu7F3VsqpsNEjitxQK_s-11" value="" style="edgeStyle=orthogonalEdgeStyle;rounded=0;orthogonalLoop=1;jettySize=auto;html=1;fontSize=10;" parent="1" source="Nu7F3VsqpsNEjitxQK_s-8" target="Nu7F3VsqpsNEjitxQK_s-10" edge="1">
          <mxGeometry relative="1" as="geometry" />
        </mxCell>
        <mxCell id="Nu7F3VsqpsNEjitxQK_s-8" value="The assessor validates the type of award against the attached documents" style="whiteSpace=wrap;html=1;rounded=0;fontSize=10;" parent="1" vertex="1">
          <mxGeometry x="309" y="500" width="120" height="60" as="geometry" />
        </mxCell>
      </root>
    </mxGraphModel>
  </diagram>
</mxfile>
